<svg width="60" height="60" viewBox="0 0 60 60" fill="none" xmlns="http://www.w3.org/2000/svg">
<rect opacity="0.303083" width="60" height="60" rx="11" fill="#61B7FF"/>
<path d="M32.5 23.625V13H16.875C15.7812 13 15 13.8594 15 14.875V51.125C15 52.2188 15.7812 53 16.875 53H43.125C44.1406 53 45 52.2188 45 51.125V25.5H34.375C33.2812 25.5 32.5 24.7188 32.5 23.625ZM36.9531 33H38.8281C39.375 33 39.8438 33.625 39.6875 34.1719L36.7188 47.2969C36.6406 47.7656 36.25 48 35.8594 48H32.8906C32.4219 48 32.0312 47.7656 31.9531 47.2969C29.9219 39.25 30.3125 40.9688 29.9219 38.7031C29.8438 39.7969 29.6875 40.0312 27.8906 47.2969C27.8125 47.7656 27.4219 48 27.0312 48H24.1406C23.6719 48 23.2812 47.7656 23.2031 47.2969L20.2344 34.1719C20.0781 33.625 20.5469 33 21.1719 33H23.0469C23.5156 33 23.9062 33.3125 23.9844 33.7812C25.2344 39.875 25.5469 42.375 25.625 43.3125C25.7812 42.5312 26.1719 40.8125 27.8906 33.7812C28.0469 33.3125 28.4375 33.0781 28.8281 33.0781H31.0938C31.5625 33.0781 31.9531 33.3125 32.0312 33.7812C33.9062 41.5938 34.2969 43.4688 34.375 43.8594C34.2969 43 34.1406 42.4531 36.0156 33.7812C36.0938 33.3125 36.4844 33 36.9531 33ZM45 22.5312C45 22.0625 44.7656 21.5938 44.4531 21.2031L36.7969 13.5469C36.4062 13.2344 35.9375 13 35.4688 13H35V23H45V22.5312Z" fill="#6CB1EC"/>
</svg>
