<svg width="60" height="60" viewBox="0 0 60 60" fill="none" xmlns="http://www.w3.org/2000/svg">
<rect opacity="0.303083" width="60" height="60" rx="11" fill="#61B7FF"/>
<path d="M30.0781 34.25H27.8906V38.9375H30C30.7031 38.9375 31.25 38.7031 31.6406 38.3125C32.4219 37.375 32.4219 35.7344 31.7188 34.875C31.3281 34.4062 30.7812 34.25 30.0781 34.25ZM44.4531 21.2031L36.7969 13.5469C36.4062 13.2344 35.9375 13 35.4688 13H35V23H45V22.5312C45 22.0625 44.7656 21.5938 44.4531 21.2031ZM32.5 23.625V13H16.875C15.7812 13 15 13.8594 15 14.875V51.125C15 52.2188 15.7812 53 16.875 53H43.125C44.1406 53 45 52.2188 45 51.125V25.5H34.375C33.2812 25.5 32.5 24.7188 32.5 23.625ZM36.6406 36.5938C36.6406 43.625 29.6875 42.6094 27.8906 42.6094V47.0625C27.8906 47.6094 27.5 48 26.9531 48H24.6094C24.0625 48 23.6719 47.6094 23.6719 47.0625V31.5156C23.6719 30.9688 24.0625 30.5781 24.6094 30.5781H30.9375C34.375 30.5781 36.6406 33.0781 36.6406 36.5938Z" fill="#6CB1EC"/>
</svg>
