<svg width="60" height="60" viewBox="0 0 60 60" fill="none" xmlns="http://www.w3.org/2000/svg">
<rect opacity="0.303083" width="60" height="60" rx="11" fill="#61B7FF"/>
<path d="M45 22.5312C45 22.1406 44.6875 21.5156 44.375 21.2031L36.7969 13.625C36.4844 13.3125 35.8594 13 35.4688 13H35V23H45V22.5312ZM34.375 25.5C33.2812 25.5 32.5 24.7188 32.5 23.625V13H16.875C15.7812 13 15 13.8594 15 14.875V51.125C15 52.2188 15.7812 53 16.875 53H43.125C44.1406 53 45 52.2188 45 51.125V25.5H34.375ZM23.75 26.75C25.8594 26.75 27.5 28.4688 27.5 30.5C27.5 32.6094 25.8594 34.25 23.75 34.25C21.7188 34.25 20 32.6094 20 30.5C20 28.4688 21.7188 26.75 23.75 26.75ZM40 45.5H20L20.0781 41.75L23.125 38.625C23.5156 38.3125 24.0625 38.3125 24.4531 38.7031L27.5 41.75L35.625 33.7031C35.9375 33.3125 36.5625 33.3125 36.9531 33.7031L40 36.75V45.5Z" fill="#6CB1EC"/>
</svg>
