<svg width="60" height="60" viewBox="0 0 60 60" fill="none" xmlns="http://www.w3.org/2000/svg">
<rect opacity="0.303083" width="60" height="60" rx="11" fill="#61B7FF"/>
<path d="M44.4531 21.2031L36.7969 13.5469C36.4062 13.2344 35.9375 13 35.4688 13H35V23H45V22.5312C45 22.0625 44.7656 21.5938 44.4531 21.2031ZM25 39.25C23.5938 39.25 22.5 40.2656 22.5 41.3594C22.5 42.5312 23.5938 43.4688 25 43.4688C26.4062 43.4688 27.5 42.5312 27.5 41.3594C27.5 40.2656 26.4062 39.25 25 39.25ZM32.5 23.625V13H27.5V15.5H25V13H16.875C15.7812 13 15 13.8594 15 14.875V51.125C15 52.2188 15.7812 53 16.875 53H43.125C44.1406 53 45 52.2188 45 51.125V25.5H34.375C33.2812 25.5 32.5 24.7188 32.5 23.625ZM22.4219 15.5H24.9219V18H22.4219V15.5ZM25 45.5C22.4219 45.5 20.4688 43.1562 20.9375 40.6562L22.5 33V30.5H25V28H22.5V25.5H25V23H22.5V20.5H25V18H27.5V20.5H25V23H27.5V25.5H25V28H27.5V30.5H25V33H26.7188C27.1875 33 27.5781 33.3906 27.6562 33.7812L28.9844 40.6562C29.5312 43.1562 27.5781 45.5 25 45.5Z" fill="#6CB1EC"/>
</svg>
