<svg width="60" height="60" viewBox="0 0 60 60" fill="none" xmlns="http://www.w3.org/2000/svg">
<rect opacity="0.303083" width="60" height="60" rx="11" fill="#61B7FF"/>
<path d="M29.1406 33.0781C29.6094 32.2969 29.6875 29.4062 28.9844 29.4062C28.8281 29.4062 28.75 31.8281 29.1406 33.0781ZM29.0625 36.75C28.4375 38.3125 27.6562 40.1094 26.7969 41.5938C28.2812 41.0469 29.8438 40.2656 31.7188 39.9531C30.7812 39.1719 29.7656 38.0781 29.0625 36.75ZM21.7188 46.5156C21.7188 46.5156 22.7344 46.0469 24.4531 43.3125C23.9062 43.8594 22.1094 45.2656 21.7188 46.5156ZM34.375 25.5C33.2812 25.5 32.5 24.7188 32.5 23.625V13H16.875C15.7812 13 15 13.8594 15 14.875V51.125C15 52.2188 15.7812 53 16.875 53H43.125C44.1406 53 45 52.2188 45 51.125V25.5H34.375ZM33.75 38.9375C35.2344 38.7812 38.3594 38.4688 39.4531 39.4844C40.3906 40.4219 40.2344 42.9219 37.8906 42.9219C36.6406 42.9219 34.6094 42.2969 32.8906 41.3594C31.0156 41.6719 28.75 42.5312 26.7188 43.2344C24.7656 46.5938 23.3594 48 21.9531 48C21.5625 48 20.7031 47.7656 20.3125 47.2188C18.8281 45.4219 22.4219 43 24.5312 41.9062C24.5312 41.9062 24.5312 41.9062 24.6094 41.9062C25.5469 40.2656 26.875 37.375 27.7344 35.1875C27.1094 32.6875 26.7188 30.6562 27.1094 29.1719C27.5781 27.6875 30.4688 27.4531 30.8594 29.7188C31.25 31.125 30.7031 33.3125 30.3906 34.7188C31.0938 36.6719 32.1875 38 33.75 38.9375ZM44.4531 21.2031L36.7969 13.5469C36.4062 13.2344 35.9375 13 35.4688 13H35V23H45V22.5312C45 22.0625 44.7656 21.5938 44.4531 21.2031ZM38.5938 41.2031C38.9844 40.9688 38.4375 40.2656 35.3125 40.5C38.2031 41.75 38.5938 41.2031 38.5938 41.2031Z" fill="#6CB1EC"/>
</svg>
