<svg width="15" height="24" viewBox="0 0 15 24" fill="none" xmlns="http://www.w3.org/2000/svg">
<path opacity="0.3" fill-rule="evenodd" clip-rule="evenodd" d="M3.20273 10.959V3.79306C3.20273 2.44724 4.00011 1.27139 5.20217 0.598191V3.60264C5.20217 3.95734 5.52893 4.24853 5.93361 4.24853C6.33888 4.24853 6.66447 3.95786 6.66447 3.60264V0.0744915C6.93546 0.0293706 7.21294 0 7.49935 0C7.78401 0 8.06208 0.0293706 8.33306 0.0744915V3.60257C8.33306 3.95728 8.66048 4.24847 9.06634 4.24847C9.47036 4.24847 9.79778 3.95779 9.79778 3.60257V0.598126C10.9957 1.27133 11.7973 2.44718 11.7973 3.79306V10.959C11.7973 13.0557 9.87088 14.7547 7.49884 14.7547C5.12498 14.7547 3.20273 13.0557 3.20273 10.959ZM0.565041 22.7234H1.56447L6.03464 21.3785V17.1263C2.80813 16.5292 0.374834 13.9959 0.374834 10.9684C0.374834 10.5649 0.74443 10.2385 1.20197 10.2385C1.32265 10.2385 1.43969 10.2627 1.54188 10.3031C1.83121 10.419 2.03385 10.6719 2.03385 10.9684C2.03385 13.6308 4.48374 15.7952 7.4987 15.7952C10.5125 15.7952 12.966 13.6307 12.966 10.9684C12.966 10.6725 13.1674 10.419 13.4544 10.3031C13.5584 10.2627 13.6737 10.2385 13.7943 10.2385C14.2537 10.2385 14.625 10.5649 14.625 10.9684C14.625 13.9954 12.1924 16.5287 8.96173 17.1263V21.378L13.4355 22.7234H14.4349C14.7481 22.7234 14.9994 22.948 14.9994 23.2229V23.4994C14.9994 23.7759 14.7481 24 14.4349 24H0.565041C0.251952 24 -0.000610352 23.7759 -0.000610352 23.4994V23.2229C-0.000610352 22.948 0.251879 22.7234 0.565041 22.7234Z" fill="#292F4C"/>
</svg>
