<svg width="26" height="6" viewBox="0 0 26 6" fill="none" xmlns="http://www.w3.org/2000/svg">
<path fill-rule="evenodd" clip-rule="evenodd" d="M22.9994 6C24.6562 6 25.9994 4.65685 25.9994 3C25.9994 1.34315 24.6562 0 22.9994 0C21.3425 0 19.9994 1.34315 19.9994 3C19.9994 4.65685 21.3425 6 22.9994 6Z" fill="#292F4C"/>
<path fill-rule="evenodd" clip-rule="evenodd" d="M12.9994 6C14.6562 6 15.9994 4.65685 15.9994 3C15.9994 1.34315 14.6562 0 12.9994 0C11.3425 0 9.99939 1.34315 9.99939 3C9.99939 4.65685 11.3425 6 12.9994 6Z" fill="#292F4C"/>
<path fill-rule="evenodd" clip-rule="evenodd" d="M2.99939 6C4.65624 6 5.99939 4.65685 5.99939 3C5.99939 1.34315 4.65624 0 2.99939 0C1.34254 0 -0.000610352 1.34315 -0.000610352 3C-0.000610352 4.65685 1.34254 6 2.99939 6Z" fill="#292F4C"/>
</svg>
