<svg width="24" height="22" viewBox="0 0 24 22" fill="none" xmlns="http://www.w3.org/2000/svg">
<path d="M23.4928 0.472768C23.3889 0.383231 23.241 0.362458 23.1156 0.419567L0.466651 10.7562C0.344717 10.8119 0.266196 10.9314 0.26473 11.0634C0.263265 11.1955 0.339203 11.3166 0.459951 11.3748L6.86957 14.4646C6.98711 14.5213 7.12726 14.5085 7.23223 14.4314L13.4641 9.85625L8.57183 14.7993C8.50204 14.8698 8.46644 14.9664 8.47412 15.0645L8.96123 21.2957C8.97205 21.4337 9.06627 21.5518 9.20021 21.595C9.23602 21.6066 9.2728 21.6122 9.30916 21.6122C9.4089 21.6122 9.50592 21.5702 9.57341 21.4934L12.9754 17.6211L17.181 19.5949C17.2723 19.6377 17.378 19.6395 17.4707 19.5999C17.5635 19.5602 17.6341 19.483 17.6644 19.3882L23.5956 0.833178C23.637 0.703604 23.5966 0.562305 23.4928 0.472768Z" fill="white"/>
</svg>
