<svg width="20" height="20" viewBox="0 0 20 20" fill="none" xmlns="http://www.w3.org/2000/svg">
<path fill-rule="evenodd" clip-rule="evenodd" d="M-0.000610352 10C-0.000610352 4.5 4.49939 0 9.99939 0C15.4994 0 19.9994 4.5 19.9994 10C19.9994 15.5 15.4994 20 9.99939 20C4.49939 20 -0.000610352 15.5 -0.000610352 10ZM14.9994 7.5C14.9994 6.7 14.2994 6 13.4994 6C12.6994 6 11.9994 6.7 11.9994 7.5C11.9994 8.3 12.6994 9 13.4994 9C14.2994 9 14.9994 8.3 14.9994 7.5ZM6.49939 6C7.29939 6 7.99939 6.7 7.99939 7.5C7.99939 8.3 7.29939 9 6.49939 9C5.69939 9 4.99939 8.3 4.99939 7.5C4.99939 6.7 5.69939 6 6.49939 6ZM4.39939 12C5.19939 14.3 7.39939 16 9.99939 16C12.5994 16 14.7994 14.3 15.5994 12H4.39939Z" fill="#4F9DDE"/>
</svg>
