<?xml version="1.0" encoding="UTF-8"?>
<svg width="26px" height="24px" viewBox="0 0 26 24" version="1.1" xmlns="http://www.w3.org/2000/svg" xmlns:xlink="http://www.w3.org/1999/xlink">
    <!-- Generator: Sketch 61.2 (89653) - https://sketch.com -->
    <title>Contacts</title>
    <desc>Created with Sketch.</desc>
    <g id="#13---Direct-Messaging" stroke="none" stroke-width="1" fill="none" fill-rule="evenodd" opacity="0.300000012">
        <g id="聊天主页" transform="translate(-187.000000, -401.000000)" fill="#FFFFFF" fill-rule="nonzero">
            <g id="Direct-Messaging" transform="translate(150.000000, 150.000000)">
                <g id="Left-Menu">
                    <g id="let-menus" transform="translate(0.000000, 147.000000)">
                        <g id="Contacts" transform="translate(0.000000, 79.000000)">
                            <path d="M54.8482402,37.8572166 C55.3988149,37.8572166 55.9023385,37.9464376 56.3580994,38.1249736 C56.8138603,38.303791 57.1998508,38.5423237 57.5160708,38.8415568 C57.8320536,39.1407898 58.1120366,39.5026465 58.3558775,39.9264231 C58.5992914,40.350575 58.793425,40.7855629 58.9378987,41.2321843 C59.0823724,41.6784773 59.2021347,42.1629543 59.2969485,42.6853339 C59.3913829,43.2076665 59.4545131,43.6941137 59.4865762,44.1451914 C59.5177381,44.5962692 59.5336274,45.0583236 59.5336274,45.5315424 C59.5336274,46.6027583 59.2041268,47.4489043 58.5451257,48.06923 C57.8857451,48.6895088 57.0100808,49 55.9178483,49 L55.9178483,49 L44.0822465,49 C42.9901089,49 42.1143498,48.6895088 41.4551115,48.06923 C40.7961103,47.4489043 40.4667046,46.6027583 40.4667046,45.5315424 C40.4667046,45.0583236 40.4824516,44.5961284 40.5140878,44.1451914 C40.5456766,43.6941137 40.6088068,43.2077134 40.703668,42.6853339 C40.7986241,42.1629543 40.9181019,41.6784773 41.0625282,41.2321843 C41.2070019,40.7855629 41.401088,40.350575 41.6447391,39.9264231 C41.8886748,39.5026465 42.1682784,39.1404614 42.4844984,38.8415568 C42.8004338,38.5423237 43.1863294,38.303791 43.64228,38.1249736 C44.0982306,37.9464376 44.601517,37.8572166 45.1521392,37.8572166 C45.242542,37.8572166 45.4365333,37.9532395 45.7345399,38.1452383 C46.0324042,38.3370496 46.3618099,38.5517055 46.7230416,38.7879866 C47.0841784,39.0242676 47.5670222,39.238736 48.1720473,39.4307348 C48.7769301,39.6227337 49.3864137,39.7187566 50.0002134,39.7187566 C50.613776,39.7187566 51.2230699,39.6227337 51.8283796,39.4307348 C52.4336418,39.238736 52.916201,39.0242676 53.2773852,38.7879866 C53.6386643,38.5517055 53.9678803,38.3370496 54.265887,38.1452383 C54.5638462,37.9532395 54.7578374,37.8572166 54.8482402,37.8572166 Z M50.0000237,28.4286786 C51.4357014,28.4286786 52.6610242,28.9309342 53.6766088,29.9354453 C54.6920512,30.9399564 55.1999383,32.1519463 55.1999383,33.5716028 C55.1999383,34.9911655 54.6920512,36.2032023 53.6766088,37.2079949 C52.6610242,38.2121307 51.4357014,38.7144331 50.0000237,38.7144331 C48.5643935,38.7144331 47.3390232,38.2121307 46.3233911,37.2079949 C45.307854,36.2033431 44.7999194,34.9914 44.7999194,33.5716028 C44.7999194,32.1518056 45.307854,30.9398156 46.3233911,29.9354453 C47.3389283,28.931028 48.5643935,28.4286786 50.0000237,28.4286786 Z M61.3206712,31.8574042 C62.4406506,31.8572166 63.0001423,33.4331272 63,36.5851361 C63,37.2814545 62.7470999,37.8107297 62.2416317,38.1720703 C61.7361635,38.5335986 61.1132096,38.7148084 60.3730546,38.7148084 L60.3730546,38.7148084 L58.5585485,38.7148084 C57.628339,37.6162915 56.4323758,37.0449858 54.9695678,37.0001876 C55.7011378,35.9555224 56.0668279,34.8127233 56.0668279,33.5716497 C56.0668279,33.3127116 56.0441086,33.0179818 55.9992867,32.6877888 C56.5953474,32.8932506 57.19525,32.9958407 57.8003699,32.9958407 C58.3327787,32.9958407 58.8702152,32.8998178 59.4116832,32.7080066 C59.9531987,32.5160077 60.3935447,32.3262605 60.7318199,32.1386711 C61.0704272,31.9511755 61.26679,31.8574042 61.3206712,31.8574042 Z M38.679234,31.8573573 C38.7333523,31.8573573 38.9298574,31.9511286 39.2684172,32.1386242 C39.6068348,32.3262136 40.0470858,32.5159608 40.5886013,32.7079597 C41.130354,32.8998178 41.6673635,32.9957938 42.2000095,32.9957938 C42.8048923,32.9957938 43.4052217,32.8930629 44.0011402,32.6877419 C43.9560811,33.0181225 43.9334566,33.3126647 43.9334566,33.5716028 C43.9333144,34.8126764 44.2988622,35.9554755 45.0301476,37.0001407 C43.5675768,37.044892 42.3715661,37.6162446 41.4415937,38.7144331 L41.4415937,38.7144331 L39.6268979,38.7144331 C38.8868378,38.7144331 38.2638839,38.5335517 37.7582735,38.1720234 C37.2528052,37.8106828 37,37.2814076 37,36.5850892 C37,33.4333148 37.5597288,31.8573573 38.679234,31.8573573 Z M42.2000095,25 C43.1570647,25 43.9740098,25.3348839 44.6509398,26.0045111 C45.3281068,26.6742321 45.6667141,27.4823817 45.6667141,28.4286786 C45.6667141,29.3750694 45.3281068,30.1832191 44.6509398,30.8528462 C43.9740098,31.5225203 43.1571121,31.8572166 42.2000095,31.8572166 C41.2430017,31.8572166 40.4260566,31.5223326 39.7489843,30.8528462 C39.0719596,30.1832191 38.7333523,29.375257 38.7333523,28.4286786 C38.7333523,27.4821941 39.0719596,26.6742321 39.7489843,26.0045111 C40.4260566,25.3348839 41.2430017,25 42.2000095,25 Z M57.8003699,25 C58.7570457,25 59.5741806,25.3348839 60.2511579,26.0045111 C60.9281827,26.6742321 61.2666002,27.4823817 61.2666002,28.4286786 C61.2666002,29.3750694 60.9281827,30.1832191 60.2511579,30.8528462 C59.5741331,31.5225203 58.7570457,31.8572166 57.8003699,31.8572166 C56.8430301,31.8572166 56.0261324,31.5223326 55.3490602,30.8528462 C54.6722252,30.1832191 54.3336179,29.375257 54.3336179,28.4286786 C54.3336179,27.4821941 54.6721777,26.6742321 55.3490602,26.0045111 C56.0261324,25.3348839 56.8430301,25 57.8003699,25 Z" id="Users"></path>
                        </g>
                    </g>
                </g>
            </g>
        </g>
    </g>
</svg>