<svg width="293" height="27" viewBox="0 0 293 27" fill="none" xmlns="http://www.w3.org/2000/svg">
<path fill-rule="evenodd" clip-rule="evenodd" d="M244.999 1.5C244.999 0.671574 245.671 0 246.499 0C247.328 0 247.999 0.671573 247.999 1.5V25.5C247.999 26.3284 247.328 27 246.499 27C245.671 27 244.999 26.3284 244.999 25.5V1.5ZM249.999 4.5C249.999 3.67157 250.671 3 251.499 3C252.328 3 252.999 3.67157 252.999 4.5V23.5C252.999 24.3284 252.328 25 251.499 25C250.671 25 249.999 24.3284 249.999 23.5V4.5ZM276.499 10C275.671 10 274.999 10.6716 274.999 11.5V15.5C274.999 16.3284 275.671 17 276.499 17C277.328 17 277.999 16.3284 277.999 15.5V11.5C277.999 10.6716 277.328 10 276.499 10ZM289.999 13.5C289.999 12.6716 290.671 12 291.499 12C292.328 12 292.999 12.6716 292.999 13.5C292.999 14.3284 292.328 15 291.499 15C290.671 15 289.999 14.3284 289.999 13.5ZM284.999 13.5C284.999 12.6716 285.671 12 286.499 12C287.328 12 287.999 12.6716 287.999 13.5C287.999 14.3284 287.328 15 286.499 15C285.671 15 284.999 14.3284 284.999 13.5ZM256.499 6C255.671 6 254.999 6.67157 254.999 7.5V19.5C254.999 20.3284 255.671 21 256.499 21C257.328 21 257.999 20.3284 257.999 19.5V7.5C257.999 6.67157 257.328 6 256.499 6ZM259.999 8.5C259.999 7.67157 260.671 7 261.499 7C262.328 7 262.999 7.67157 262.999 8.5V19.5C262.999 20.3284 262.328 21 261.499 21C260.671 21 259.999 20.3284 259.999 19.5V8.5ZM266.499 8C265.671 8 264.999 8.67157 264.999 9.5V18.5C264.999 19.3284 265.671 20 266.499 20C267.328 20 267.999 19.3284 267.999 18.5V9.5C267.999 8.67157 267.328 8 266.499 8ZM269.999 10.5C269.999 9.67157 270.671 9 271.499 9C272.328 9 272.999 9.67157 272.999 10.5V16.5C272.999 17.3284 272.328 18 271.499 18C270.671 18 269.999 17.3284 269.999 16.5V10.5ZM281.499 11C280.671 11 279.999 11.6716 279.999 12.5V14.5C279.999 15.3284 280.671 16 281.499 16C282.328 16 282.999 15.3284 282.999 14.5V12.5C282.999 11.6716 282.328 11 281.499 11ZM241.499 7C240.671 7 239.999 7.67157 239.999 8.5V18.5C239.999 19.3284 240.671 20 241.499 20C242.328 20 242.999 19.3284 242.999 18.5V8.5C242.999 7.67157 242.328 7 241.499 7ZM234.999 7.5C234.999 6.67157 235.671 6 236.499 6C237.328 6 237.999 6.67157 237.999 7.5V19.5C237.999 20.3284 237.328 21 236.499 21C235.671 21 234.999 20.3284 234.999 19.5V7.5ZM231.499 6C230.671 6 229.999 6.67157 229.999 7.5V19.5C229.999 20.3284 230.671 21 231.499 21C232.328 21 232.999 20.3284 232.999 19.5V7.5C232.999 6.67157 232.328 6 231.499 6ZM224.999 9.5C224.999 8.67157 225.671 8 226.499 8C227.328 8 227.999 8.67157 227.999 9.5V18.5C227.999 19.3284 227.328 20 226.499 20C225.671 20 224.999 19.3284 224.999 18.5V9.5ZM221.499 7C220.671 7 219.999 7.67157 219.999 8.5V18.5C219.999 19.3284 220.671 20 221.499 20C222.328 20 222.999 19.3284 222.999 18.5V8.5C222.999 7.67157 222.328 7 221.499 7ZM214.999 5.5C214.999 4.67157 215.671 4 216.499 4C217.328 4 217.999 4.67157 217.999 5.5V21.5C217.999 22.3284 217.328 23 216.499 23C215.671 23 214.999 22.3284 214.999 21.5V5.5ZM211.499 6C210.671 6 209.999 6.67157 209.999 7.5V19.5C209.999 20.3284 210.671 21 211.499 21C212.328 21 212.999 20.3284 212.999 19.5V7.5C212.999 6.67157 212.328 6 211.499 6ZM204.999 10.5C204.999 9.67157 205.671 9 206.499 9C207.328 9 207.999 9.67157 207.999 10.5V17.5C207.999 18.3284 207.328 19 206.499 19C205.671 19 204.999 18.3284 204.999 17.5V10.5ZM201.499 7C200.671 7 199.999 7.67157 199.999 8.5V18.5C199.999 19.3284 200.671 20 201.499 20C202.328 20 202.999 19.3284 202.999 18.5V8.5C202.999 7.67157 202.328 7 201.499 7ZM194.999 7.5C194.999 6.67157 195.671 6 196.499 6C197.328 6 197.999 6.67157 197.999 7.5V19.5C197.999 20.3284 197.328 21 196.499 21C195.671 21 194.999 20.3284 194.999 19.5V7.5ZM191.499 7C190.671 7 189.999 7.67157 189.999 8.5V19.5C189.999 20.3284 190.671 21 191.499 21C192.328 21 192.999 20.3284 192.999 19.5V8.5C192.999 7.67157 192.328 7 191.499 7ZM184.999 9.5C184.999 8.67157 185.671 8 186.499 8C187.328 8 187.999 8.67157 187.999 9.5V18.5C187.999 19.3284 187.328 20 186.499 20C185.671 20 184.999 19.3284 184.999 18.5V9.5ZM181.499 9C180.671 9 179.999 9.67157 179.999 10.5V16.5C179.999 17.3284 180.671 18 181.499 18C182.328 18 182.999 17.3284 182.999 16.5V10.5C182.999 9.67157 182.328 9 181.499 9ZM174.999 8.5C174.999 7.67157 175.671 7 176.499 7C177.328 7 177.999 7.67157 177.999 8.5V19.5C177.999 20.3284 177.328 21 176.499 21C175.671 21 174.999 20.3284 174.999 19.5V8.5ZM171.499 1C170.671 1 169.999 1.67157 169.999 2.5V24.5C169.999 25.3284 170.671 26 171.499 26C172.328 26 172.999 25.3284 172.999 24.5V2.5C172.999 1.67157 172.328 1 171.499 1ZM164.999 10.5C164.999 9.67157 165.671 9 166.499 9C167.328 9 167.999 9.67157 167.999 10.5V16.5C167.999 17.3284 167.328 18 166.499 18C165.671 18 164.999 17.3284 164.999 16.5V10.5ZM161.499 5C160.671 5 159.999 5.67157 159.999 6.5V21.5C159.999 22.3284 160.671 23 161.499 23C162.328 23 162.999 22.3284 162.999 21.5V6.5C162.999 5.67157 162.328 5 161.499 5ZM67.9993 4.5C67.9993 3.67157 67.3277 3 66.4993 3C65.6708 3 64.9993 3.67157 64.9993 4.5V23.5C64.9993 24.3284 65.6708 25 66.4993 25C67.3277 25 67.9993 24.3284 67.9993 23.5V4.5ZM71.4993 5C72.3277 5 72.9993 5.67157 72.9993 6.5V21.5C72.9993 22.3284 72.3277 23 71.4993 23C70.6708 23 69.9993 22.3284 69.9993 21.5V6.5C69.9993 5.67157 70.6708 5 71.4993 5ZM77.9993 8.5C77.9993 7.67157 77.3277 7 76.4993 7C75.6708 7 74.9993 7.67157 74.9993 8.5V18.5C74.9993 19.3284 75.6708 20 76.4993 20C77.3277 20 77.9993 19.3284 77.9993 18.5V8.5ZM81.4993 6C82.3277 6 82.9993 6.67157 82.9993 7.5V19.5C82.9993 20.3284 82.3277 21 81.4993 21C80.6708 21 79.9993 20.3284 79.9993 19.5V7.5C79.9993 6.67157 80.6708 6 81.4993 6ZM87.9993 7.5C87.9993 6.67157 87.3277 6 86.4993 6C85.6708 6 84.9993 6.67157 84.9993 7.5V19.5C84.9993 20.3284 85.6708 21 86.4993 21C87.3277 21 87.9993 20.3284 87.9993 19.5V7.5ZM91.4993 3C92.3277 3 92.9993 3.67157 92.9993 4.5V22.5C92.9993 23.3284 92.3277 24 91.4993 24C90.6708 24 89.9993 23.3284 89.9993 22.5V4.5C89.9993 3.67157 90.6708 3 91.4993 3ZM97.9993 8.5C97.9993 7.67157 97.3277 7 96.4993 7C95.6708 7 94.9993 7.67157 94.9993 8.5V18.5C94.9993 19.3284 95.6708 20 96.4993 20C97.3277 20 97.9993 19.3284 97.9993 18.5V8.5ZM101.499 4C102.328 4 102.999 4.67157 102.999 5.5V21.5C102.999 22.3284 102.328 23 101.499 23C100.671 23 99.9993 22.3284 99.9993 21.5V5.5C99.9993 4.67157 100.671 4 101.499 4ZM107.999 1.5C107.999 0.671574 107.328 0 106.499 0C105.671 0 104.999 0.671573 104.999 1.5V25.5C104.999 26.3284 105.671 27 106.499 27C107.328 27 107.999 26.3284 107.999 25.5V1.5ZM111.499 3C112.328 3 112.999 3.67157 112.999 4.5V22.5C112.999 23.3284 112.328 24 111.499 24C110.671 24 109.999 23.3284 109.999 22.5V4.5C109.999 3.67157 110.671 3 111.499 3ZM117.999 4.5C117.999 3.67157 117.328 3 116.499 3C115.671 3 114.999 3.67157 114.999 4.5V22.5C114.999 23.3284 115.671 24 116.499 24C117.328 24 117.999 23.3284 117.999 22.5V4.5ZM121.499 6C122.328 6 122.999 6.67157 122.999 7.5V19.5C122.999 20.3284 122.328 21 121.499 21C120.671 21 119.999 20.3284 119.999 19.5V7.5C119.999 6.67157 120.671 6 121.499 6ZM127.999 8.5C127.999 7.67157 127.328 7 126.499 7C125.671 7 124.999 7.67157 124.999 8.5V19.5C124.999 20.3284 125.671 21 126.499 21C127.328 21 127.999 20.3284 127.999 19.5V8.5ZM131.499 8C132.328 8 132.999 8.67157 132.999 9.5V18.5C132.999 19.3284 132.328 20 131.499 20C130.671 20 129.999 19.3284 129.999 18.5V9.5C129.999 8.67157 130.671 8 131.499 8ZM137.999 10.5C137.999 9.67157 137.328 9 136.499 9C135.671 9 134.999 9.67157 134.999 10.5V16.5C134.999 17.3284 135.671 18 136.499 18C137.328 18 137.999 17.3284 137.999 16.5V10.5ZM141.499 7C142.328 7 142.999 7.67157 142.999 8.5V19.5C142.999 20.3284 142.328 21 141.499 21C140.671 21 139.999 20.3284 139.999 19.5V8.5C139.999 7.67157 140.671 7 141.499 7ZM147.999 5.5C147.999 4.67157 147.328 4 146.499 4C145.671 4 144.999 4.67157 144.999 5.5V21.5C144.999 22.3284 145.671 23 146.499 23C147.328 23 147.999 22.3284 147.999 21.5V5.5ZM151.499 9C152.328 9 152.999 9.67157 152.999 10.5V16.5C152.999 17.3284 152.328 18 151.499 18C150.671 18 149.999 17.3284 149.999 16.5V10.5C149.999 9.67157 150.671 9 151.499 9ZM157.999 6.5C157.999 5.67157 157.328 5 156.499 5C155.671 5 154.999 5.67157 154.999 6.5V21.5C154.999 22.3284 155.671 23 156.499 23C157.328 23 157.999 22.3284 157.999 21.5V6.5ZM61.4993 3C60.6708 3 59.9993 3.67157 59.9993 4.5V23.5C59.9993 24.3284 60.6708 25 61.4993 25C62.3277 25 62.9993 24.3284 62.9993 23.5V4.5C62.9993 3.67157 62.3277 3 61.4993 3ZM54.9993 1.5C54.9993 0.671574 55.6708 0 56.4993 0C57.3277 0 57.9993 0.671573 57.9993 1.5V25.5C57.9993 26.3284 57.3277 27 56.4993 27C55.6708 27 54.9993 26.3284 54.9993 25.5V1.5ZM51.4993 7C50.6708 7 49.9993 7.67157 49.9993 8.5V18.5C49.9993 19.3284 50.6708 20 51.4993 20C52.3277 20 52.9993 19.3284 52.9993 18.5V8.5C52.9993 7.67157 52.3277 7 51.4993 7ZM44.9993 7.5C44.9993 6.67157 45.6708 6 46.4993 6C47.3277 6 47.9993 6.67157 47.9993 7.5V19.5C47.9993 20.3284 47.3277 21 46.4993 21C45.6708 21 44.9993 20.3284 44.9993 19.5V7.5ZM41.4993 6C40.6708 6 39.9993 6.67157 39.9993 7.5V19.5C39.9993 20.3284 40.6708 21 41.4993 21C42.3277 21 42.9993 20.3284 42.9993 19.5V7.5C42.9993 6.67157 42.3277 6 41.4993 6ZM34.9993 9.5C34.9993 8.67157 35.6708 8 36.4993 8C37.3277 8 37.9993 8.67157 37.9993 9.5V18.5C37.9993 19.3284 37.3277 20 36.4993 20C35.6708 20 34.9993 19.3284 34.9993 18.5V9.5ZM16.4993 13C15.6708 13 14.9993 13.6716 14.9993 14.5C14.9993 15.3284 15.6708 16 16.4993 16C17.3277 16 17.9993 15.3284 17.9993 14.5C17.9993 13.6716 17.3277 13 16.4993 13ZM9.99927 14.5C9.99927 13.6716 10.6708 13 11.4993 13C12.3277 13 12.9993 13.6716 12.9993 14.5C12.9993 15.3284 12.3277 16 11.4993 16C10.6708 16 9.99927 15.3284 9.99927 14.5ZM6.49927 13C5.67084 13 4.99927 13.6716 4.99927 14.5C4.99927 15.3284 5.67084 16 6.49927 16C7.3277 16 7.99927 15.3284 7.99927 14.5C7.99927 13.6716 7.3277 13 6.49927 13ZM-0.000732422 14.5C-0.000732422 13.6716 0.670837 13 1.49927 13C2.3277 13 2.99927 13.6716 2.99927 14.5C2.99927 15.3284 2.3277 16 1.49927 16C0.670837 16 -0.000732422 15.3284 -0.000732422 14.5ZM26.4993 11C25.6708 11 24.9993 11.6716 24.9993 12.5V16.5C24.9993 17.3284 25.6708 18 26.4993 18C27.3277 18 27.9993 17.3284 27.9993 16.5V12.5C27.9993 11.6716 27.3277 11 26.4993 11ZM29.9993 11.5C29.9993 10.6716 30.6708 10 31.4993 10C32.3277 10 32.9993 10.6716 32.9993 11.5V17.5C32.9993 18.3284 32.3277 19 31.4993 19C30.6708 19 29.9993 18.3284 29.9993 17.5V11.5ZM21.4993 12C20.6708 12 19.9993 12.6716 19.9993 13.5V15.5C19.9993 16.3284 20.6708 17 21.4993 17C22.3277 17 22.9993 16.3284 22.9993 15.5V13.5C22.9993 12.6716 22.3277 12 21.4993 12Z" fill="#4F9DDE"/>
</svg>
